<?xml version="1.0" standalone="no"?>
<!DOCTYPE svg PUBLIC "-//W3C//DTD SVG 20010904//EN"
 "http://www.w3.org/TR/2001/REC-SVG-20010904/DTD/svg10.dtd">
<svg version="1.0" xmlns="http://www.w3.org/2000/svg"
 width="300.000000pt" height="168.000000pt" viewBox="0 0 300.000000 168.000000"
 preserveAspectRatio="xMidYMid meet">
<metadata>
Created by potrace 1.16, written by Peter Selinger 2001-2019
</metadata>
<g transform="translate(0.000000,168.000000) scale(0.100000,-0.100000)"
fill="#000000" stroke="none">
<path d="M515 1513 c-176 -37 -288 -134 -360 -311 -38 -93 -50 -188 -36 -274
16 -100 46 -159 131 -258 116 -135 145 -185 144 -241 -1 -62 -65 -194 -129
-264 -25 -27 -69 -76 -96 -108 l-51 -57 381 0 380 0 40 78 c45 85 95 152 116
152 7 0 18 -7 25 -15 7 -8 17 -15 23 -15 5 0 2 9 -7 19 -20 22 -35 18 133 43
73 11 87 17 105 41 20 27 20 28 2 79 -17 49 -17 52 -1 64 11 8 15 20 11 32 -4
11 -2 23 4 27 15 9 12 41 -5 55 -27 22 -17 49 30 82 51 36 63 61 43 87 -7 11
-41 60 -76 111 -60 88 -62 93 -47 116 20 31 19 52 -6 108 -11 26 -36 93 -56
149 -41 121 -61 155 -116 203 -40 34 -41 36 -23 50 11 8 15 14 9 14 -6 0 -16
-6 -22 -14 -10 -12 -20 -11 -64 9 -116 54 -331 71 -482 38z m45 -63 c0 10 3
10 14 1 11 -9 16 -9 21 0 6 8 10 7 16 -2 8 -12 10 -12 18 -1 6 11 10 10 15 -3
4 -11 12 -15 22 -11 14 5 15 4 4 -9 -7 -9 -10 -18 -6 -22 3 -3 6 -2 6 4 0 6 9
13 21 16 16 4 18 3 8 -9 -9 -11 -8 -14 5 -14 9 0 24 9 33 19 9 11 20 18 25 15
14 -9 9 -21 -11 -27 -13 -3 -19 -13 -18 -25 1 -16 4 -18 14 -10 10 8 12 7 7
-6 -4 -11 -1 -16 10 -16 10 0 13 -6 10 -15 -4 -8 -1 -15 5 -15 6 0 8 -7 5 -15
-4 -8 -1 -15 6 -15 9 0 10 -3 1 -13 -8 -10 -7 -17 1 -25 9 -9 9 -12 -1 -12 -7
0 -9 -5 -5 -12 13 -21 11 -47 -3 -53 -8 -2 -11 -9 -8 -15 3 -5 1 -10 -5 -10
-7 0 -9 -8 -5 -20 4 -14 2 -20 -7 -18 -7 2 -12 -3 -11 -9 2 -7 -4 -13 -13 -13
-11 0 -14 -5 -10 -16 4 -12 2 -15 -9 -10 -9 3 -15 0 -15 -10 0 -11 -6 -13 -21
-9 -16 5 -19 4 -14 -5 5 -9 2 -10 -14 -5 -12 4 -21 2 -21 -4 0 -6 -7 -8 -15
-5 -9 4 -15 0 -15 -7 -1 -10 -5 -8 -14 4 -14 18 -15 18 -25 0 -10 -17 -10 -17
-11 0 0 19 -20 24 -20 5 0 -10 -3 -9 -9 1 -5 7 -14 10 -20 7 -7 -5 -10 -2 -9
6 2 7 -4 13 -12 13 -8 0 -19 6 -23 13 -5 7 -12 10 -18 7 -5 -4 -9 -2 -9 4 0 5
6 12 13 15 6 3 0 5 -14 3 -19 -3 -26 1 -25 12 0 9 -4 15 -10 14 -8 -1 -10 6
-6 19 3 15 2 19 -7 14 -9 -6 -10 0 -5 20 5 19 4 25 -4 20 -8 -5 -10 -2 -6 8 4
10 1 16 -7 16 -9 1 -8 4 4 11 14 8 16 14 6 25 -9 11 -8 14 4 14 8 0 17 -9 20
-20 3 -11 2 -20 -2 -20 -4 0 -8 -7 -8 -15 0 -8 4 -15 9 -15 5 0 7 -4 4 -8 -6
-9 10 -37 21 -37 4 -1 19 -5 32 -9 16 -6 26 -4 32 5 6 11 16 9 50 -10 24 -14
44 -20 48 -14 3 6 18 12 33 15 20 4 27 1 27 -11 1 -26 4 -51 6 -51 2 0 9 8 16
17 12 15 12 16 -1 8 -8 -4 -12 -4 -7 0 14 15 39 15 33 -1 -3 -8 -3 -14 0 -14
8 0 56 53 72 79 18 31 15 101 -5 124 -11 12 -12 17 -4 12 10 -6 12 -4 7 4 -5
7 -14 10 -22 7 -8 -3 -14 -1 -14 3 0 5 6 11 13 14 6 2 -22 2 -63 1 -69 -3 -73
-2 -50 11 l25 14 -27 1 c-15 0 -30 -4 -33 -10 -3 -5 -15 -10 -26 -10 -10 0
-19 5 -19 10 0 6 -9 10 -21 10 -11 0 -17 5 -14 10 3 6 1 10 -5 10 -7 0 -14 -9
-17 -20 -5 -19 -7 -19 -18 -4 -11 15 -15 13 -38 -18 -15 -19 -27 -40 -27 -46
0 -22 -18 -12 -22 13 -4 17 -1 25 9 25 10 0 12 6 8 20 -5 15 -3 18 9 14 12 -5
15 -2 10 10 -4 11 -1 16 11 16 9 0 13 5 10 10 -3 6 3 10 15 10 14 0 19 4 14
12 -5 8 -2 9 10 5 10 -4 19 -1 22 8 3 7 12 11 20 8 8 -3 14 0 14 7 0 10 3 10
15 0 12 -10 15 -10 15 0z m406 -107 c8 21 24 22 24 1 0 -11 6 -14 20 -9 15 5
20 2 20 -10 0 -11 5 -15 15 -11 10 4 15 -1 15 -15 0 -15 5 -19 15 -15 18 7 20
-5 3 -22 -9 -9 -8 -12 5 -12 20 0 23 -16 5 -23 -10 -4 -9 -8 2 -16 13 -9 12
-12 -5 -25 -11 -9 -14 -16 -7 -16 18 0 15 -20 -4 -20 -12 0 -15 -6 -11 -20 4
-17 2 -20 -14 -15 -13 5 -19 2 -19 -10 0 -12 -6 -15 -20 -10 -15 5 -20 2 -20
-12 -1 -17 -1 -17 -15 1 -13 17 -15 17 -21 3 -8 -21 -24 -22 -24 -1 0 11 -6
14 -20 9 -14 -4 -20 -2 -20 9 0 10 -6 13 -16 9 -13 -5 -15 -2 -9 17 6 18 4 22
-8 17 -20 -8 -29 3 -16 20 9 10 8 13 -5 13 -19 0 -21 16 -3 23 9 4 8 8 -3 16
-12 9 -12 13 -2 19 7 5 10 16 6 25 -4 12 -1 17 10 17 10 0 16 8 16 21 0 15 5
19 15 15 9 -3 15 0 15 10 0 11 6 13 20 9 15 -5 20 -2 20 12 1 17 1 17 15 -1
13 -17 15 -17 21 -3z"/>
<path d="M2158 1520 c-26 -4 -70 -16 -98 -25 -27 -9 -59 -14 -70 -10 -14 5
-18 3 -15 -8 4 -8 -4 -18 -19 -25 -36 -16 -105 -81 -122 -115 -9 -16 -35 -85
-60 -153 -24 -68 -51 -138 -60 -156 -13 -25 -14 -35 -3 -54 7 -13 17 -24 22
-24 12 0 -36 -81 -95 -159 -26 -35 -48 -74 -48 -87 0 -24 49 -66 72 -62 7 2
12 -2 11 -9 -1 -6 4 -17 12 -23 13 -11 11 -16 -10 -42 -29 -34 -30 -41 -11
-57 7 -6 11 -22 8 -36 -3 -18 0 -25 12 -25 20 0 20 -19 1 -56 -29 -56 -14
-111 23 -82 15 12 16 11 3 -5 -22 -28 1 -41 73 -42 35 0 62 -3 59 -7 -2 -5 11
-8 31 -8 19 0 37 6 39 13 3 7 6 5 6 -5 1 -11 9 -18 21 -18 10 0 23 -6 27 -13
4 -8 16 -16 26 -20 9 -4 27 -22 38 -42 12 -19 26 -32 32 -28 6 3 7 1 3 -5 -4
-6 7 -38 24 -72 l30 -60 381 0 381 0 -84 93 c-47 50 -101 117 -121 147 -38 57
-77 154 -77 189 0 46 47 121 152 243 39 46 82 107 95 136 66 142 46 323 -53
488 -68 113 -149 172 -289 210 -69 18 -277 27 -347 14z m242 -58 c8 -2 17 -8
18 -13 2 -5 8 -7 13 -3 5 3 9 4 10 2 0 -2 3 -24 5 -49 7 -60 -21 -94 -78 -95
-21 -1 -38 3 -38 8 0 5 -5 6 -12 2 -7 -4 -8 -3 -4 4 4 7 3 12 -3 12 -11 0 -24
33 -26 68 -1 12 2 22 7 22 5 0 7 3 5 8 -6 9 19 33 27 25 3 -4 6 -1 6 5 0 6 9
9 20 7 11 -2 20 2 20 8 0 8 3 8 8 2 4 -5 14 -11 22 -13z m-284 -117 c13 17 14
17 20 0 7 -17 8 -17 19 -1 11 15 13 15 19 1 4 -11 2 -14 -7 -9 -6 4 -9 4 -5
-1 4 -4 0 -14 -10 -22 -15 -12 -14 -13 8 -1 14 7 28 11 33 10 4 -1 6 1 6 6 -4
25 4 34 12 13 8 -19 12 -21 24 -11 12 10 15 9 15 -5 0 -11 5 -15 15 -11 11 4
15 -2 15 -24 0 -16 5 -32 11 -36 8 -4 9 0 4 15 -4 12 -2 21 4 21 6 0 11 -7 11
-16 0 -10 5 -14 15 -10 11 4 15 0 13 -12 -2 -9 3 -16 10 -15 15 4 16 -9 0 -25
-9 -9 -7 -12 10 -12 19 0 20 -3 11 -26 -8 -24 -8 -25 6 -14 8 7 15 8 15 2 0
-5 -7 -15 -15 -22 -17 -14 -20 -30 -4 -30 5 0 7 5 4 10 -3 6 1 10 11 10 13 0
14 -3 4 -15 -9 -11 -10 -18 -1 -29 9 -11 7 -13 -12 -13 -19 0 -24 5 -24 26 -1
43 -12 86 -23 89 -5 2 -7 9 -3 15 4 6 0 8 -9 5 -8 -4 -21 2 -28 12 -12 17 -15
17 -25 4 -8 -12 -16 -13 -35 -5 -14 6 -50 15 -80 20 -30 5 -65 12 -77 14 -13
3 -25 2 -28 -4 -9 -14 -25 -11 -25 6 0 14 -3 13 -25 -1 -14 -9 -22 -21 -18
-27 3 -5 2 -7 -4 -4 -5 3 -18 -8 -28 -25 -21 -37 -26 -149 -7 -156 7 -2 12
-10 12 -17 0 -7 7 -15 15 -19 8 -3 15 -1 15 5 0 7 7 8 18 4 9 -4 42 -11 72
-15 30 -5 78 -11 105 -15 32 -4 57 -15 70 -29 11 -12 19 -20 17 -17 -4 8 41
51 54 51 6 0 17 15 25 33 7 17 13 33 14 35 5 6 35 -11 35 -20 0 -5 -4 -7 -9
-4 -15 9 -34 -22 -29 -48 4 -19 1 -22 -15 -18 -17 4 -18 3 -7 -17 11 -21 10
-22 -10 -16 -17 5 -21 3 -18 -12 2 -12 -2 -17 -14 -15 -11 2 -18 -3 -18 -12 0
-10 -6 -13 -15 -10 -10 4 -15 0 -15 -11 0 -15 -2 -16 -17 -4 -13 11 -17 11
-20 1 -3 -6 -9 -10 -14 -7 -15 10 -84 13 -101 4 -11 -6 -18 -4 -22 7 -5 13 -9
14 -21 4 -10 -8 -15 -9 -15 -2 0 6 8 16 18 21 15 10 15 11 -3 8 -11 -1 -26 -6
-32 -10 -9 -5 -13 -2 -13 8 0 11 -5 15 -15 11 -10 -4 -15 1 -15 15 0 15 -5 19
-16 15 -12 -4 -14 -1 -9 14 4 14 2 20 -8 20 -10 0 -13 7 -10 20 4 17 2 19 -13
13 -17 -6 -17 -5 -5 10 11 14 11 18 -3 23 -13 5 -14 9 -5 20 10 13 6 18 -13
15 -14 -2 -8 11 10 25 10 8 12 13 5 14 -7 0 -13 5 -13 11 0 6 7 9 14 6 10 -4
13 -1 9 9 -3 7 -9 14 -14 14 -5 0 -9 5 -9 11 0 5 4 8 9 4 5 -3 13 0 17 6 3 6
1 15 -6 19 -8 5 -4 9 11 13 19 5 21 8 9 22 -12 15 -11 16 6 13 13 -2 18 2 16
14 -2 12 2 16 13 12 10 -4 15 0 15 10 0 9 7 16 15 16 8 0 15 7 15 16 0 14 3
14 15 4 12 -10 15 -10 15 4 0 19 16 21 23 4 4 -8 9 -3 13 11 6 21 8 22 17 5 9
-17 10 -17 23 1z m414 -292 c0 -15 1 -15 18 0 17 15 18 14 20 -16 2 -22 -1
-28 -8 -21 -15 15 -80 5 -80 -13 0 -8 -4 -11 -10 -8 -5 3 -10 -1 -10 -9 0 -10
-6 -13 -17 -10 -15 5 -15 4 -3 -5 11 -7 19 -6 31 5 11 10 26 13 45 8 46 -11
48 -15 15 -31 -17 -8 -33 -24 -36 -34 -4 -10 -11 -19 -16 -19 -5 0 -9 -9 -9
-21 0 -11 4 -18 8 -15 4 2 14 -4 20 -15 12 -19 11 -19 -10 -8 -13 7 -26 17
-30 23 -5 7 -8 4 -8 -6 0 -10 -4 -18 -10 -18 -5 0 -10 5 -10 10 0 17 -28 11
-39 -7 -6 -10 -11 -13 -11 -6 0 6 5 15 10 18 6 4 7 11 4 17 -4 6 -2 8 4 4 17
-10 27 16 10 28 -17 12 -14 61 4 72 5 3 3 12 -4 21 -11 14 -10 15 11 8 21 -6
23 -5 18 14 -6 23 3 27 21 9 9 -9 12 -7 12 12 0 19 3 21 12 12 16 -16 28 -15
28 3 0 8 5 15 10 15 6 0 10 -7 10 -17z m97 -69 c-4 -4 2 -19 12 -33 24 -34 35
-71 22 -71 -6 0 -11 -9 -11 -21 0 -14 5 -19 15 -16 8 4 17 2 20 -3 4 -6 -1
-10 -10 -10 -11 0 -15 -5 -11 -15 3 -9 0 -15 -9 -15 -8 0 -15 -6 -15 -14 0 -9
-7 -12 -20 -9 -15 4 -20 0 -20 -13 0 -13 -3 -15 -11 -7 -6 6 -18 9 -25 6 -9
-3 -14 1 -14 12 0 9 4 14 9 11 5 -3 20 3 32 14 26 21 11 27 -23 9 -15 -8 -19
-8 -14 0 9 14 -14 14 -49 1 -16 -6 -24 -6 -20 0 3 5 21 12 40 16 19 3 35 10
35 15 0 5 -7 6 -15 3 -8 -4 -15 -3 -15 0 0 4 11 11 25 16 18 7 25 17 26 37 l1
28 9 -25 c8 -23 8 -22 5 8 -1 18 1 35 6 38 4 3 8 14 8 25 0 10 5 19 12 19 6 0
8 -3 5 -6z"/>
</g>
</svg>
